<svg id="visual" viewBox="0 0 900 600" width="900" height="600" xmlns="http://www.w3.org/2000/svg" xmlns:xlink="http://www.w3.org/1999/xlink" version="1.1"><rect x="0" y="0" width="900" height="600" fill="#F7F2F2"></rect><defs><linearGradient id="grad1_0" x1="33.3%" y1="100%" x2="100%" y2="0%"><stop offset="20%" stop-color="#f7F2F2" stop-opacity="1"></stop><stop offset="80%" stop-color="#f7F2F2" stop-opacity="1"></stop></linearGradient></defs><defs><linearGradient id="grad2_0" x1="0%" y1="100%" x2="66.7%" y2="0%"><stop offset="20%" stop-color="#f7F2F2" stop-opacity="1"></stop><stop offset="80%" stop-color="#f7F2F2" stop-opacity="1"></stop></linearGradient></defs><g transform="translate(900, 600)"><path d="M-243.4 0C-221.8 -27.2 -200.3 -54.3 -182.9 -75.8C-165.5 -97.2 -152.3 -112.9 -140 -140C-127.7 -167.1 -116.3 -205.7 -93.1 -224.8C-70 -244 -35 -243.7 0 -243.4L0 0Z" fill="#3aad90"></path></g><g transform="translate(0, 0)"><path d="M243.4 0C223.2 27.1 203 54.2 187.5 77.7C172.1 101.2 161.2 121.1 147.8 147.8C134.3 174.4 118.2 207.8 93.1 224.8C68.1 241.9 34 242.6 0 243.4L0 0Z" fill="#3aad90"></path></g></svg>